PathFileType	4	(X/Y/Z)	Captury_Subj1_squat02.trc
DataRate	CameraRate	NumFrames	NumMarkers	Units	OrigDataRate	OrigDataStartFrame	OrigNumFrames
60.0	60.0	4	47	mm	59.99879837036133	72	284
Frame#	Time		LeftUpLeg_		RightUpLeg_		LeftLeg_		RightLeg_		LeftFoot_		RightFoot_		LeftToeBase_		RightToeBase_		Knee_Lateral_r		Knee_Lateral_l		Ankle_Lateral_r		Ankle_Lateral_l		LeftArm_		LeftForeArm_		LeftHand_		LeftHandEE		RightArm_		RightForeArm_		RightHand_		RightHandEE		Spine_		Spine1_		Spine2_		Spine3_		Spine4_		Spine5_		Spine_x		Spine_y		Spine_z		RASI		LASI		RIPS		LIPS		RTHI		LTHI		RTIB		LTIB		RTOE		LTOE		RHEE		LHEE		RHipAngles		LHipAngles		RKneeAngles		LKneeAngles		RAnkleAngles		LAnkleAngles
			X1	Y1	Z1	X2	Y2	Z2	X3	Y3	Z3	X4	Y4	Z4	X5	Y5	Z5	X6	Y6	Z6	X7	Y7	Z7	X8	Y8	Z8	X9	Y9	Z9	X10	Y10	Z10	X11	Y11	Z11	X12	Y12	Z12	X13	Y13	Z13	X14	Y14	Z14	X15	Y15	Z15	X16	Y16	Z16	X17	Y17	Z17	X18	Y18	Z18	X19	Y19	Z19	X20	Y20	Z20	X21	Y21	Z21	X22	Y22	Z22	X23	Y23	Z23	X24	Y24	Z24	X25	Y25	Z25	X26	Y26	Z26	X27	Y27	Z27	X28	Y28	Z28	X29	Y29	Z29	X30	Y30	Z30	X31	Y31	Z31	X32	Y32	Z32	X33	Y33	Z33	X34	Y34	Z34	X35	Y35	Z35	X36	Y36	Z36	X37	Y37	Z37	X38	Y38	Z38	X39	Y39	Z39	X40	Y40	Z40	X41	Y41	Z41	X42	Y42	Z42	X43	Y43	Z43	X44	Y44	Z44	X45	Y45	Z45	X46	Y46	Z46	X47	Y47	Z47

72	1.18333	-174.59274	849.36761	38.35251	-8.70740	847.57648	34.01598	-198.68362	451.51175	33.61195	16.04865	449.83856	24.86348	-220.78232	85.90500	68.28868	46.06250	84.59296	57.32702	-236.94250	31.78751	-45.32655	75.19315	30.66276	-53.76399	61.71972	450.28253	27.55425	-244.26144	451.88812	37.58757	90.59505	87.82179	78.17657	-264.78391	88.17819	90.35611	-224.46777	1375.83960	63.92673	-218.69666	1394.53174	-211.73257	-210.47079	1431.09656	-442.16711	-214.63075	1434.06152	-527.21600	42.59541	1354.10229	81.03719	42.49821	1389.80847	-192.99899	39.29226	1439.50696	-421.08783	54.04789	1439.10645	-505.00159	-90.33511	940.56238	48.44647	-90.38744	1038.94031	38.40632	-91.00519	1108.14648	59.62555	-93.15394	1184.75684	110.24310	-96.43308	1314.92603	140.32423	0.00000	0.00000	0.00000	-43.80608	940.05994	47.23012	-89.91418	987.00598	45.36438	-89.08822	943.63226	94.87604	46.00690	903.82129	-64.78429	-233.16733	906.83582	-57.48619	-52.61630	914.13623	77.18037	-127.06276	914.94006	79.12654	67.56023	662.12860	36.46139	-250.33478	663.79620	44.68050	67.11435	286.71735	27.47504	-247.26894	232.56058	38.49049	90.28208	7.26693	-119.65523	-246.28371	0.12731	-108.78574	53.41157	26.90994	110.38316	-231.62733	27.70369	120.16630	-4.46563	1.23020	4.77258	-3.82960	-0.14304	3.42802	-0.50076	1.32361	-0.03439	-0.27017	0.33143	-0.08402	5.54926	5.53505	11.81083	4.93240	-1.64503	11.78410
73	1.20000	-174.46434	849.31354	38.27883	-8.57888	847.53009	33.94526	-198.60829	451.46121	33.52774	16.11064	449.78876	24.76883	-220.88123	85.89343	68.50052	45.99199	84.53882	57.30433	-237.00803	31.67770	-45.07259	75.08673	30.52899	-53.75737	61.78164	450.22488	27.46203	-244.18938	451.84424	37.46496	90.52714	87.76326	78.14899	-264.89960	88.20313	90.53064	-224.63455	1375.53052	63.93947	-218.92401	1394.44580	-211.70586	-210.81223	1431.15820	-442.12094	-214.64920	1433.44849	-527.20581	42.50761	1354.32227	80.70556	42.42759	1389.76892	-193.36435	39.09900	1439.51819	-421.44037	54.19315	1439.65747	-505.29474	-90.21122	940.51233	48.37292	-90.27235	1038.92639	38.32301	-90.89500	1108.17395	59.53494	-93.03236	1184.83459	110.14213	-96.36009	1315.04834	140.19200	0.00000	0.00000	0.00000	-43.68214	940.01208	47.15740	-89.79243	986.95587	45.29015	-88.96529	943.58295	94.80246	46.13448	903.77600	-64.85487	-233.03995	906.77753	-57.56176	-52.49168	914.08838	77.10789	-126.93820	914.88873	79.05272	67.65737	662.06927	36.38292	-250.23828	663.75323	44.54756	67.11624	286.64929	27.40960	-247.28519	232.53383	38.55519	90.13747	7.17682	-119.67281	-246.32025	0.01097	-108.53278	53.34671	26.89095	110.39786	-231.70387	27.72878	120.42387	-4.46942	1.21796	4.77464	-3.83049	-0.13213	3.38157	-0.51662	1.31299	-0.04200	-0.31654	0.35021	-0.08207	5.57389	5.52564	11.82674	4.93232	-1.60889	11.73153
74	1.21667	-174.39240	849.30939	38.27544	-8.50570	847.57031	33.96994	-198.57866	451.46088	33.41299	16.30662	449.83923	24.67561	-220.80511	85.90735	68.56499	46.04980	84.58588	57.30062	-236.89435	31.51028	-44.92669	75.25650	30.46178	-53.67604	61.97422	450.28717	27.42399	-244.16043	451.84778	37.34186	90.56223	87.81633	78.19287	-264.82455	88.24091	90.59043	-224.74271	1375.46851	63.72817	-218.92366	1394.38403	-211.91487	-210.76271	1430.95166	-442.35120	-214.84799	1433.42273	-527.41949	42.38928	1354.45532	80.35282	42.30126	1389.93164	-193.71326	39.01190	1439.72778	-421.77960	54.20795	1440.00513	-505.61523	-90.16652	940.53699	48.33698	-90.25249	1038.98877	38.24562	-90.89554	1108.28711	59.43533	-93.05531	1185.00842	110.02305	-96.42085	1315.27295	140.03665	0.00000	0.00000	0.00000	-43.63710	940.04919	47.12934	-89.76026	986.97906	45.23068	-88.92906	943.63153	94.76515	46.20807	903.78143	-64.84980	-232.96844	906.70819	-57.60392	-52.44426	914.13818	77.09155	-126.89133	914.91870	79.02379	67.77966	662.12994	36.43059	-250.18764	663.75555	44.48027	67.26372	286.68591	27.39830	-247.22707	232.52960	38.54633	90.35309	7.13614	-119.59038	-246.17244	-0.19730	-108.37148	53.36716	26.99680	110.46309	-231.58078	27.81163	120.57523	-4.52060	1.21999	4.83270	-3.87685	-0.11095	3.38081	-0.54851	1.28275	-0.04748	-0.36124	0.34025	-0.07421	5.62176	5.51574	11.85818	4.99136	-1.60811	11.69947
75	1.23333	-174.34734	849.47064	38.38002	-8.46132	847.70825	34.05801	-198.54564	451.62198	33.60141	16.27519	449.97095	24.82971	-220.84549	86.00888	68.07936	46.12365	84.70578	57.22487	-236.84563	31.59937	-45.41895	75.27671	30.50173	-53.72686	61.94469	450.41144	27.54763	-244.12900	452.01141	37.51150	90.64909	87.95961	78.08569	-264.87009	88.34476	90.09424	-225.00471	1375.04529	63.59502	-218.92696	1394.40027	-212.01193	-210.81387	1430.90161	-442.46048	-214.90298	1432.93188	-527.54022	42.25745	1354.67212	79.76157	42.44757	1389.83691	-194.34454	38.79802	1440.19922	-422.28101	54.03076	1440.40710	-506.11017	-90.10964	940.69739	48.35056	-90.19253	1039.08337	38.16195	-90.82880	1108.34656	59.27500	-92.95711	1185.06360	109.77270	-96.36656	1315.30420	139.63522	0.00000	0.00000	0.00000	-43.58041	940.20306	47.13828	-89.69827	987.13666	45.20255	-88.86675	943.83344	94.77580	46.24828	903.82428	-64.81806	-232.92706	906.79041	-57.54440	-52.38736	914.32001	77.12468	-126.83412	915.11096	79.06432	67.79321	662.25507	36.50642	-250.15167	663.92102	44.59749	67.27112	286.82770	27.42368	-247.23380	232.69029	38.32178	90.31548	7.22471	-119.67162	-246.05713	-0.03324	-108.91083	53.52656	27.17033	110.43353	-231.63309	27.91258	120.08646	-4.55962	1.21732	4.80102	-3.91457	-0.11669	3.35197	-0.50251	1.30306	-0.04861	-0.24283	0.33810	-0.06482	5.70121	5.50836	11.89226	5.10085	-1.63128	11.68080
